<mxfile host="Electron" agent="Mozilla/5.0 (Windows NT 10.0; Win64; x64) AppleWebKit/537.36 (KHTML, like Gecko) draw.io/26.0.9 Chrome/128.0.6613.186 Electron/32.2.5 Safari/537.36" version="26.0.9">
  <diagram id="C5RBs43oDa-KdzZeNtuy" name="Page-1">
    <mxGraphModel dx="605" dy="1187" grid="1" gridSize="10" guides="1" tooltips="1" connect="1" arrows="1" fold="1" page="1" pageScale="1" pageWidth="827" pageHeight="1169" math="0" shadow="0">
      <root>
        <mxCell id="WIyWlLk6GJQsqaUBKTNV-0" />
        <mxCell id="WIyWlLk6GJQsqaUBKTNV-1" parent="WIyWlLk6GJQsqaUBKTNV-0" />
        <mxCell id="XTx1JZ_yI5bifrQvkjq1-0" value="" style="image;html=1;image=img/lib/clip_art/computers/Antivirus_128x128.png" parent="WIyWlLk6GJQsqaUBKTNV-1" vertex="1">
          <mxGeometry x="360" y="400" width="80" height="80" as="geometry" />
        </mxCell>
        <mxCell id="XTx1JZ_yI5bifrQvkjq1-1" value="&lt;font style=&quot;font-size: 14px; background-color: rgb(255, 153, 255);&quot;&gt;Tecniche di&amp;nbsp;&lt;/font&gt;&lt;div&gt;&lt;font style=&quot;background-color: rgb(255, 153, 255);&quot; size=&quot;3&quot;&gt;data mining&lt;/font&gt;&lt;/div&gt;" style="shape=hexagon;perimeter=hexagonPerimeter2;whiteSpace=wrap;html=1;fixedSize=1;" parent="WIyWlLk6GJQsqaUBKTNV-1" vertex="1">
          <mxGeometry x="440" y="270" width="120" height="80" as="geometry" />
        </mxCell>
        <mxCell id="XTx1JZ_yI5bifrQvkjq1-2" value="&lt;font style=&quot;font-size: 14px; background-color: rgb(117, 208, 89);&quot;&gt;Sandbox&lt;/font&gt;&lt;div&gt;&lt;font style=&quot;background-color: rgb(117, 208, 89);&quot; size=&quot;3&quot;&gt;detection&lt;/font&gt;&lt;/div&gt;" style="shape=hexagon;perimeter=hexagonPerimeter2;whiteSpace=wrap;html=1;fixedSize=1;" parent="WIyWlLk6GJQsqaUBKTNV-1" vertex="1">
          <mxGeometry x="240" y="260" width="120" height="80" as="geometry" />
        </mxCell>
        <mxCell id="XTx1JZ_yI5bifrQvkjq1-3" value="&lt;span style=&quot;font-size: 14px; background-color: rgb(255, 255, 102);&quot;&gt;Protezione&amp;nbsp;&lt;/span&gt;&lt;div&gt;&lt;span style=&quot;font-size: 14px; background-color: rgb(255, 255, 102);&quot;&gt;real-time&lt;/span&gt;&lt;/div&gt;" style="shape=hexagon;perimeter=hexagonPerimeter2;whiteSpace=wrap;html=1;fixedSize=1;" parent="WIyWlLk6GJQsqaUBKTNV-1" vertex="1">
          <mxGeometry x="140" y="380" width="120" height="80" as="geometry" />
        </mxCell>
        <mxCell id="XTx1JZ_yI5bifrQvkjq1-4" value="&lt;span style=&quot;font-size: 14px; background-color: rgb(255, 153, 153);&quot;&gt;Scan per&amp;nbsp;&lt;/span&gt;&lt;div&gt;&lt;span style=&quot;font-size: 14px; background-color: rgb(255, 153, 153);&quot;&gt;rootkit&lt;/span&gt;&lt;/div&gt;" style="shape=hexagon;perimeter=hexagonPerimeter2;whiteSpace=wrap;html=1;fixedSize=1;" parent="WIyWlLk6GJQsqaUBKTNV-1" vertex="1">
          <mxGeometry x="160" y="530" width="120" height="80" as="geometry" />
        </mxCell>
        <mxCell id="XTx1JZ_yI5bifrQvkjq1-5" value="&lt;span style=&quot;font-size: 14px; background-color: light-dark(rgb(102, 255, 255), rgb(255, 255, 255));&quot;&gt;Cloud antivirus&lt;/span&gt;" style="shape=hexagon;perimeter=hexagonPerimeter2;whiteSpace=wrap;html=1;fixedSize=1;" parent="WIyWlLk6GJQsqaUBKTNV-1" vertex="1">
          <mxGeometry x="330" y="600" width="120" height="80" as="geometry" />
        </mxCell>
        <mxCell id="XTx1JZ_yI5bifrQvkjq1-6" value="&lt;span style=&quot;font-size: 14px; background-color: light-dark(rgb(140, 63, 0), rgb(255, 255, 255));&quot;&gt;ecc...&lt;/span&gt;" style="shape=hexagon;perimeter=hexagonPerimeter2;whiteSpace=wrap;html=1;fixedSize=1;" parent="WIyWlLk6GJQsqaUBKTNV-1" vertex="1">
          <mxGeometry x="490" y="545" width="120" height="80" as="geometry" />
        </mxCell>
        <mxCell id="XTx1JZ_yI5bifrQvkjq1-7" value="&lt;span style=&quot;font-size: 14px; background-color: light-dark(rgb(102, 102, 255), rgb(255, 255, 255));&quot;&gt;Firme&lt;/span&gt;" style="shape=hexagon;perimeter=hexagonPerimeter2;whiteSpace=wrap;html=1;fixedSize=1;" parent="WIyWlLk6GJQsqaUBKTNV-1" vertex="1">
          <mxGeometry x="530" y="390" width="120" height="80" as="geometry" />
        </mxCell>
        <mxCell id="XTx1JZ_yI5bifrQvkjq1-8" value="" style="endArrow=classic;html=1;rounded=0;" parent="WIyWlLk6GJQsqaUBKTNV-1" edge="1">
          <mxGeometry width="50" height="50" relative="1" as="geometry">
            <mxPoint x="430" y="400" as="sourcePoint" />
            <mxPoint x="450" y="360" as="targetPoint" />
          </mxGeometry>
        </mxCell>
        <mxCell id="XTx1JZ_yI5bifrQvkjq1-9" value="" style="endArrow=classic;html=1;rounded=0;" parent="WIyWlLk6GJQsqaUBKTNV-1" edge="1">
          <mxGeometry width="50" height="50" relative="1" as="geometry">
            <mxPoint x="450" y="440" as="sourcePoint" />
            <mxPoint x="510" y="430" as="targetPoint" />
          </mxGeometry>
        </mxCell>
        <mxCell id="XTx1JZ_yI5bifrQvkjq1-10" value="" style="endArrow=classic;html=1;rounded=0;" parent="WIyWlLk6GJQsqaUBKTNV-1" edge="1">
          <mxGeometry width="50" height="50" relative="1" as="geometry">
            <mxPoint x="450" y="490" as="sourcePoint" />
            <mxPoint x="490" y="530" as="targetPoint" />
          </mxGeometry>
        </mxCell>
        <mxCell id="XTx1JZ_yI5bifrQvkjq1-11" value="" style="endArrow=classic;html=1;rounded=0;" parent="WIyWlLk6GJQsqaUBKTNV-1" edge="1">
          <mxGeometry width="50" height="50" relative="1" as="geometry">
            <mxPoint x="370" y="390" as="sourcePoint" />
            <mxPoint x="340" y="350" as="targetPoint" />
          </mxGeometry>
        </mxCell>
        <mxCell id="XTx1JZ_yI5bifrQvkjq1-12" value="" style="endArrow=classic;html=1;rounded=0;" parent="WIyWlLk6GJQsqaUBKTNV-1" edge="1">
          <mxGeometry width="50" height="50" relative="1" as="geometry">
            <mxPoint x="350" y="430" as="sourcePoint" />
            <mxPoint x="280" y="430" as="targetPoint" />
          </mxGeometry>
        </mxCell>
        <mxCell id="XTx1JZ_yI5bifrQvkjq1-13" value="" style="endArrow=classic;html=1;rounded=0;" parent="WIyWlLk6GJQsqaUBKTNV-1" edge="1">
          <mxGeometry width="50" height="50" relative="1" as="geometry">
            <mxPoint x="350" y="480" as="sourcePoint" />
            <mxPoint x="290" y="530" as="targetPoint" />
          </mxGeometry>
        </mxCell>
        <mxCell id="XTx1JZ_yI5bifrQvkjq1-14" value="" style="endArrow=classic;html=1;rounded=0;" parent="WIyWlLk6GJQsqaUBKTNV-1" edge="1">
          <mxGeometry width="50" height="50" relative="1" as="geometry">
            <mxPoint x="400" y="510" as="sourcePoint" />
            <mxPoint x="390" y="570" as="targetPoint" />
          </mxGeometry>
        </mxCell>
        <mxCell id="XTx1JZ_yI5bifrQvkjq1-15" value="&lt;font style=&quot;font-size: 14px;&quot;&gt;&lt;b&gt;Antivirus&lt;/b&gt;&lt;/font&gt;" style="text;html=1;align=center;verticalAlign=middle;whiteSpace=wrap;rounded=0;" parent="WIyWlLk6GJQsqaUBKTNV-1" vertex="1">
          <mxGeometry x="370" y="480" width="60" height="30" as="geometry" />
        </mxCell>
      </root>
    </mxGraphModel>
  </diagram>
</mxfile>
